<svg xmlns="http://www.w3.org/2000/svg" width="12.447" height="16" viewBox="0 0 12.447 16"><defs><style>.a{fill:#ef3d52;}</style></defs><g transform="translate(0)"><path class="a" d="M126.431.966H129.1v.45h.966V.9a.9.9,0,0,0-.9-.9h-2.8a.9.9,0,0,0-.9.9v.513h.966Zm0,0" transform="translate(-121.544)"/><path class="a" d="M49.981,167.75H40.915a.425.425,0,0,0-.424.46l.758,9.372a1.007,1.007,0,0,0,1,.926h6.392a1.007,1.007,0,0,0,1-.926l.758-9.372A.425.425,0,0,0,49.981,167.75Zm-6.871,9.758h-.03a.483.483,0,0,1-.481-.453l-.475-7.694a.483.483,0,0,1,.964-.059L43.563,177A.483.483,0,0,1,43.111,177.508Zm2.826-.482a.483.483,0,0,1-.966,0v-7.694a.483.483,0,0,1,.966,0Zm2.836-7.666-.453,7.694a.483.483,0,0,1-.482.454h-.029a.483.483,0,0,1-.454-.51l.453-7.694a.483.483,0,0,1,.964.057Zm0,0" transform="translate(-39.224 -162.508)"/><path class="a" d="M12.427,77.581l-.317-.951a.614.614,0,0,0-.583-.42H.921a.614.614,0,0,0-.582.42l-.317.951a.4.4,0,0,0,.378.524h11.65a.393.393,0,0,0,.211-.061A.4.4,0,0,0,12.427,77.581Zm0,0" transform="translate(0 -73.829)"/></g></svg>